# xmcd
#
# Track frame offsets:
#	150
#	12797
#	23827
#	36280
#	49142
#	60187
#	69842
#	84212
#	94637
#	103187
#	116470
#	137212
#	148080
#	160165
#	170625
#	184642
#	197637
#	213202
#	227760
#	242307
#	252775
#	283017
#
# Disc length: 3928
#
# Revision: 5
# Processed by: cddbd v1.5.1PL0 Copyright (c) Steve Scherf et al.
# Submitted via: EasyCDDAExtractor 5.0.4.1
# Normalized: r4:DSETVAR1
#
DISCID=1f0f5616
DTITLE=Various Artist - Chess Blues Guitar [CD2]
DYEAR=1998
DGENRE=Blues
TTITLE0=Muddy Waters - Walking thru the park
TTITLE1=Eddie Burns - Treat me like I treat you
TTITLE2=Lafayette Thomas - Claim on you
TTITLE3=Jimmy Rogers - Rock this house
TTITLE4=Otis Rush - I'm satisified
TTITLE5=Chuck Berry - I still got the blues
TTITLE6=Buddy Guy - Broken hearted blues
TTITLE7=Elmore James - Talk to me baby (I can't hold out)
TTITLE8=Bo Diddly - My babe
TTITLE9=Albert King - Won't be hanging aound
TTITLE10=Bo Diddly - I can tell
TTITLE11=Howlin' Wolf - Hidden charms
TTITLE12=Buddy Guy - Buddy's boogie
TTITLE13=Little Milton - What kind of love is this?
TTITLE14=Robert Nighthawk - Someday
TTITLE15=Howlin' Wolf - Killing floor
TTITLE16=Buddy Guy - Leave my girl alone
TTITLE17=Clarence Gatemouth Brown - Cross my heart
TTITLE18=Hound Dog Taylor - Watch out
TTITLE19=Lonnie Brooks - One sunny day
TTITLE20=Little Milton - I can't quit you baby
TTITLE21=Johnny Littlejohn - She's too much
EXTD=
EXTT0=
EXTT1=
EXTT2=
EXTT3=
EXTT4=
EXTT5=
EXTT6=
EXTT7=
EXTT8=
EXTT9=
EXTT10=
EXTT11=
EXTT12=
EXTT13=
EXTT14=
EXTT15=
EXTT16=
EXTT17=
EXTT18=
EXTT19=
EXTT20=
EXTT21=
PLAYORDER=
